# xmcd
#
# Track frame offsets:
#  150
#  13948
#  30915
#  36383
#  57643
#  74048
#  96739
#  109106
#  120196
#  122444
#  150858
#  165985
#  189391
#  197721
#  215148
#  219849
#  243511
#
# Disc length: 3632 seconds
#
# Revision: 0
# Processed by: cddbd v1.5.1PL0 Copyright (c) Steve Scherf et al.
# Submitted via: Collectorz.com Music Collector 6.9
#
DISCID=ed0e2e11
DTITLE=todd snider - Live At John Henry's, Eugene (April 22nd 2005) - Disc 1
DYEAR=2005
DGENRE=
TTITLE0=Can't Complain
TTITLE1=Db Cooper
TTITLE2=Todd's Self Intro
TTITLE3=Play A Train Song
TTITLE4=Yesterdays And Used To Be's
TTITLE5=Tension
TTITLE6=Incarcerated Intro
TTITLE7=Incarcerated
TTITLE8=Ballad Of The Kingsmen Intro
TTITLE9=Ballad Of The Kingsmen
TTITLE10=Forty Five Miles
TTITLE11=Ballad Of The Devil's Backbone Tavern
TTITLE12=Tillamook County Jail Intro
TTITLE13=Tillamook County Jail
TTITLE14=Tillamook County Jail
TTITLE15=Easy Money
TTITLE16=This Land Is Your Land
EXTD=
EXTT0=
EXTT1=
EXTT2=
EXTT3=
EXTT4=
EXTT5=
EXTT6=
EXTT7=
EXTT8=
EXTT9=
EXTT10=
EXTT11=
EXTT12=
EXTT13=
EXTT14=
EXTT15=
EXTT16=
PLAYORDER=
